# xmcd
#
# Track frame offsets:
#	182
#	13450
#	26270
#	38375
#	52405
#	64077
#	77295
#	87517
#	98807
#	110427
#	123327
#	138765
#	150195
#	163507
#
# Disc length: 2341
#
# Revision: 2
# Processed by: cddbd v1.5.1PL0 Copyright (c) Steve Scherf et al.
# Submitted via: EasyCDDAExtractor 4.6.0.1
# Normalized: r0:TDELIM( - ),TSWAP
#
DISCID=a209230e
DTITLE=Various Blues - R'N'B' Classics
DYEAR=1900
DGENRE=Blues
TTITLE0=Muddy Waters - Mannish Boy
TTITLE1=Tommy Tucker - High Heel Sneakers
TTITLE2=Jimmy Reed - Bright Lights Big City
TTITLE3=Howlin Wolf - SmokeStack Lightning
TTITLE4=Little Walter - My Babe
TTITLE5=Elmore James - Bust My Broom
TTITLE6=John Lee Hooker - Dimples
TTITLE7=Wilbert Harrison - Kansas City
TTITLE8=John Lee Hooker - Boom Boom
TTITLE9=Jimmy Reed - Shame Shame Shame
TTITLE10=Muddy Waters - Got My Mojo Working
TTITLE11=Elmore James - Shake Your Money Maker
TTITLE12=Little Junior Parker - Feelin Good
TTITLE13=Howlin Wolf - SpoonFul
EXTD=
EXTT0=
EXTT1=
EXTT2=
EXTT3=
EXTT4=
EXTT5=
EXTT6=
EXTT7=
EXTT8=
EXTT9=
EXTT10=
EXTT11=
EXTT12=
EXTT13=
PLAYORDER=
